<?xml version="1.0" encoding="UTF-8"?>
<svg width="32px" height="32px" viewBox="0 0 32 32" version="1.1" xmlns="http://www.w3.org/2000/svg" xmlns:xlink="http://www.w3.org/1999/xlink">
    <title>icon</title>
    <defs>
        <linearGradient x1="50%" y1="0.105574324%" x2="50%" y2="100%" id="linearGradient-1">
            <stop stop-color="#4C979C" offset="0%"></stop>
            <stop stop-color="#134448" offset="100%"></stop>
        </linearGradient>
    </defs>
    <g id="Page-1" stroke="none" stroke-width="1" fill="none" fill-rule="evenodd">
        <g id="icon" fill-rule="nonzero">
            <path d="M9.133841,0 L22.866159,0 C26.0421945,0 27.1939017,0.33069124 28.3550128,0.951660256 C29.5161239,1.57262927 30.4273708,2.48387607 31.0483398,3.64498718 C31.6693087,4.80609829 32,5.95780551 32,9.133841 L32,22.866159 C32,26.0421945 31.6693087,27.1939017 31.0483398,28.3550128 C30.4273708,29.5161239 29.5161239,30.4273708 28.3550128,31.0483398 C27.1939017,31.6693087 26.0421945,32 22.866159,32 L9.133841,32 C5.95780551,32 4.80609829,31.6693087 3.64498718,31.0483398 C2.48387607,30.4273708 1.57262927,29.5161239 0.951660256,28.3550128 C0.33069124,27.1939017 0,26.0421945 0,22.866159 L0,9.133841 C0,5.95780551 0.33069124,4.80609829 0.951660256,3.64498718 C1.57262927,2.48387607 2.48387607,1.57262927 3.64498718,0.951660256 C4.80609829,0.33069124 5.95780551,0 9.133841,0 Z" id="background" fill="url(#linearGradient-1)"></path>
            <g id="hand-gesture" transform="translate(5.763487, 2.956458)" fill="#FFFFFF">
                <path d="M11.8853491,2.89800231 C11.987604,3.92074645 11.9365739,4.73898072 11.8000392,5.40392997 C12.1410837,5.45496006 13.180773,5.59129997 13.180773,5.18228022 C13.180773,4.51752574 13.180773,2.89800231 11.8853491,2.89800231" id="Fill-5"></path>
                <path d="M16.1298054,1.629262 L14.6639566,0.282613169 C14.4935316,0.521208023 14.288827,0.930422544 14.6980415,1.20310237 C15.0560312,1.45883711 15.396881,1.59517702 15.6867007,1.629262 C15.8571256,1.66334698 16.0106054,1.66334698 16.1298054,1.629262" id="Fill-6"></path>
                <path d="M0.532324216,22.7058549 C1.58934811,22.8934197 10.2660204,24.2572084 13.6752974,21.3422609 L14.1696269,20.9330464 C17.7152439,17.898899 21.6017106,14.5747371 21.5335406,11.5575347 C21.4484256,8.54033238 20.0164669,5.48904503 19.846042,5.11411026 L16.47085,2.01159808 C16.2663401,2.13079812 15.9593805,2.18202297 15.6013909,2.11385302 C15.2605411,2.06262816 14.8684664,1.90934314 14.4592519,1.61952344 C13.6752974,1.09110887 14.0843171,0.392074645 14.3400519,0.0512248543 L14.288827,0 C13.9820622,0.170619667 13.2319979,0.750064312 13.7775523,2.11385302 L13.7775523,2.13079812 C14.0161472,2.28427791 14.2377969,2.50592766 14.4251669,2.79574737 C14.7149866,3.2388521 14.9537762,3.6990967 15.1070612,4.19342628 C15.2434012,4.56855582 15.5503607,4.7730657 15.5503607,4.7730657 C15.6013909,4.80715068 15.6354758,4.85837553 15.6526157,4.90940562 C15.9252956,6.34136425 17.2378594,7.17673844 17.2549992,7.17673844 C17.3401143,7.2277685 17.3741993,7.34716331 17.3401143,7.44941825 C16.8457847,8.55747225 17.2719444,9.46082156 17.3231692,9.5630765 C17.3741993,9.64838631 17.3572542,9.76778112 17.2719444,9.83595112 L15.4821908,11.3018 C15.4650509,11.3189399 15.4140209,11.3358849 15.3799359,11.3530248 C15.3799359,11.3530248 13.6752974,11.5916197 14.4763917,8.57441731 C14.8172416,7.2618535 14.9537762,6.22196947 14.8854115,5.33556524 C14.8002964,4.46630089 14.5276166,3.73318168 14.067372,3.03434223 C13.3683378,1.96037322 12.2092537,2.23324783 11.7830941,2.38653285 C11.8000392,2.45470281 11.8171791,2.52287277 11.8171791,2.6081826 C13.6071274,2.52287277 13.6071274,4.51733097 13.6071274,5.31862014 C13.6071274,6.18788449 12.1069988,6.01745959 11.6977842,5.94928964 C11.3910194,7.05734362 10.8966899,7.55167319 10.8113801,7.636983 C10.6068702,7.87557787 7.96460262,11.1995451 7.96460262,12.5121089 C7.96460262,13.9781526 7.11228337,16.2112056 7.09533825,16.2283455 C7.06125325,16.3306004 6.94185844,16.3816305 6.82246362,16.3475455 C6.72020869,16.3134606 6.65203875,16.1771206 6.70326362,16.0748657 C6.70326362,16.0748657 6.80551856,15.8021859 6.94185844,15.3929713 C5.30538992,15.8191309 1.4699533,15.597676 0.361899321,15.5123661 C0.157389446,16.7055352 -0.42224997,20.7456764 0.532324216,22.7058549" id="Fill-7"></path>
            </g>
        </g>
    </g>
</svg>