<?xml version="1.0" encoding="UTF-8"?>
<svg width="150px" height="150px" viewBox="0 0 150 150" version="1.1" xmlns="http://www.w3.org/2000/svg" xmlns:xlink="http://www.w3.org/1999/xlink">
    <title>icon</title>
    <defs>
        <linearGradient x1="50%" y1="0.105574324%" x2="50%" y2="100%" id="linearGradient-1">
            <stop stop-color="#4C979C" offset="0%"></stop>
            <stop stop-color="#134448" offset="100%"></stop>
        </linearGradient>
    </defs>
    <g id="Page-1" stroke="none" stroke-width="1" fill="none" fill-rule="evenodd">
        <g id="icon" fill-rule="nonzero">
            <path d="M42.8148797,0 L107.18512,0 C122.072787,0 127.471414,1.55011519 132.914123,4.46090745 C138.356831,7.37169973 142.6283,11.6431691 145.539093,17.0858774 C148.449885,22.5285858 150,27.9272133 150,42.8148797 L150,107.18512 C150,122.072787 148.449885,127.471414 145.539093,132.914123 C142.6283,138.356831 138.356831,142.6283 132.914123,145.539093 C127.471414,148.449885 122.072787,150 107.18512,150 L42.8148797,150 C27.9272133,150 22.5285858,148.449885 17.0858774,145.539093 C11.6431691,142.6283 7.37169973,138.356831 4.46090745,132.914123 C1.55011519,127.471414 0,122.072787 0,107.18512 L0,42.8148797 C0,27.9272133 1.55011519,22.5285858 4.46090745,17.0858774 C7.37169973,11.6431691 11.6431691,7.37169973 17.0858774,4.46090745 C22.5285858,1.55011519 27.9272133,0 42.8148797,0 Z" id="background" fill="url(#linearGradient-1)"></path>
            <g id="hand-gesture" transform="translate(27.016345, 13.858397)" fill="#FFFFFF">
                <path d="M55.7125737,13.5843858 C56.1918937,18.378499 55.95269,22.2139721 55.3126837,25.3309217 C56.9113301,25.5701253 61.7848734,26.2092186 61.7848734,24.2919385 C61.7848734,21.1759019 61.7848734,13.5843858 55.7125737,13.5843858" id="Fill-5"></path>
                <path d="M75.608463,7.63716562 L68.7372964,1.32474923 C67.9384295,2.44316261 66.9788766,4.36135567 68.8970695,5.63954238 C70.5751462,6.83829894 72.1728797,7.47739228 73.5314095,7.63716562 C74.3302761,7.79693897 75.0497127,7.79693897 75.608463,7.63716562" id="Fill-6"></path>
                <path d="M2.49526976,106.433695 C7.45006928,107.312905 48.1219705,113.705664 64.1029564,100.041848 L66.4201263,98.1236552 C83.0402057,83.9010891 101.258018,68.31908 100.938472,54.1759438 C100.539495,40.032808 93.8271885,25.7298986 93.0283219,23.9723919 L77.2071094,9.42936601 C76.2484693,9.98811618 74.8095961,10.2282327 73.1315197,9.90868603 C71.5337862,9.66856951 69.6959364,8.95004599 67.7777432,7.59151611 C64.1029564,5.11457285 66.0202365,1.8378499 67.2189932,0.240116505 L66.9788766,0 C65.5409165,0.799779688 62.02499,3.51592646 64.5822765,9.90868603 L64.5822765,9.98811618 C65.7006899,10.7075527 66.7396731,11.7465359 67.61797,13.1050658 C68.9764998,15.1821192 70.0958262,17.3395158 70.8143496,19.6566857 C71.4534431,21.4151054 72.892316,22.3737455 72.892316,22.3737455 C73.1315197,22.5335188 73.2912929,22.7736353 73.371636,23.0128388 C74.6498229,29.7251449 80.8024658,33.6409614 80.882809,33.6409614 C81.2817858,33.8801648 81.4415593,34.439828 81.2817858,34.919148 C78.964616,40.1131512 80.9622393,44.3476011 81.2023559,44.8269211 C81.4415593,45.2268108 81.362129,45.786474 80.9622393,46.1060209 L72.5727694,52.9771875 C72.4924263,53.0575307 72.2532229,53.1369606 72.0934494,53.2173038 C72.0934494,53.2173038 64.1029564,54.3357173 67.8580863,40.1925812 C69.4558198,34.0399383 70.0958262,29.1654819 69.7753664,25.0104621 C69.3763896,20.9357854 68.0982029,17.4992891 65.9408062,14.2234792 C62.6640835,9.18924949 57.230877,10.4683492 55.2332537,11.1868727 C55.3126837,11.5064194 55.3930269,11.8259661 55.3930269,12.2258559 C63.7834099,11.8259661 63.7834099,21.1749889 63.7834099,24.9310319 C63.7834099,29.0057085 56.7515569,28.2068418 54.8333637,27.8872952 C53.3954036,33.0812982 51.0782338,35.3984681 50.678344,35.7983578 C49.719704,36.9167713 37.3340748,52.4978675 37.3340748,58.6505104 C37.3340748,65.5225901 33.3388283,75.9900264 33.259398,76.0703695 C33.0996246,76.5496896 32.5399614,76.788893 31.9802982,76.6291195 C31.5009782,76.4693464 31.1814316,75.8302529 31.4215482,75.3509329 C31.4215482,75.3509329 31.9008683,74.0727463 32.5399614,72.154553 C24.8690152,74.1521763 6.89040609,73.1141062 1.69640307,72.7142162 C0.737763029,78.3071962 -1.97929673,97.2453583 2.49526976,106.433695" id="Fill-7"></path>
            </g>
        </g>
    </g>
</svg>